<?xml version="1.0" standalone="no"?>
<!DOCTYPE svg PUBLIC "-//W3C//DTD SVG 20010904//EN"
 "http://www.w3.org/TR/2001/REC-SVG-20010904/DTD/svg10.dtd">
<svg version="1.0" xmlns="http://www.w3.org/2000/svg"
 width="512.000000pt" height="512.000000pt" viewBox="0 0 512.000000 512.000000"
 preserveAspectRatio="xMidYMid meet">
<metadata>
Created by potrace 1.14, written by Peter Selinger 2001-2017
</metadata>
<g transform="translate(0.000000,512.000000) scale(0.100000,-0.100000)"
fill="#000000" stroke="none">
<path d="M436 4254 c-203 -49 -373 -220 -421 -425 -12 -55 -14 -236 -12 -1289
l2 -1225 23 -63 c72 -200 238 -345 436 -383 31 -6 845 -9 2098 -9 2261 0 2110
-5 2247 63 81 39 195 149 237 228 17 30 39 82 50 115 18 57 19 98 19 1294 0
1349 3 1269 -59 1400 -42 88 -157 204 -247 247 -136 67 17 63 -2254 62 -1749
-1 -2069 -3 -2119 -15z m641 -580 c55 -42 61 -68 61 -259 0 -152 -2 -174 -20
-206 -37 -66 -61 -73 -258 -75 -183 -1 -212 4 -253 47 -32 33 -37 68 -37 243
0 169 0 173 27 213 40 62 71 69 301 66 139 -1 144 -2 179 -29z m834 12 c69
-34 74 -50 77 -256 3 -213 -4 -239 -75 -276 -36 -18 -57 -20 -216 -19 -161 0
-178 2 -203 21 -66 49 -69 59 -71 253 -2 196 4 224 59 264 37 27 77 32 248 30
114 -1 156 -5 181 -17z m856 -3 c66 -33 77 -71 78 -258 1 -88 -4 -175 -9 -193
-11 -36 -66 -91 -94 -93 -9 -1 -91 -2 -182 -4 -187 -2 -213 4 -256 61 -27 35
-28 37 -29 202 -2 189 4 219 46 261 39 39 79 46 260 45 125 -2 154 -5 186 -21z
m855 0 c68 -40 73 -55 75 -251 2 -156 0 -182 -17 -217 -34 -71 -60 -79 -255
-81 -186 -1 -222 6 -263 53 -32 38 -34 50 -30 249 3 174 4 181 28 212 40 50
78 58 288 55 118 -1 147 -4 174 -20z m849 3 c19 -9 44 -32 57 -51 21 -33 22
-45 22 -213 0 -201 -8 -230 -73 -268 -33 -18 -52 -20 -214 -19 -204 1 -228 8
-263 80 -18 37 -20 59 -17 216 2 190 7 209 63 246 36 23 84 28 250 27 107 -2
150 -6 175 -18z m-3415 -852 c19 -9 44 -31 57 -48 21 -29 22 -40 22 -221 0
-181 -1 -192 -22 -221 -41 -58 -72 -65 -268 -64 -162 2 -177 3 -207 24 -60 39
-68 70 -68 259 0 176 7 214 48 250 33 30 69 35 240 36 132 1 171 -2 198 -15z
m854 -2 c19 -9 45 -32 57 -51 22 -32 23 -44 23 -210 0 -194 -7 -224 -63 -265
-26 -20 -42 -21 -220 -21 -169 0 -195 2 -219 18 -58 39 -62 57 -64 242 -1 94
0 183 3 199 7 34 63 93 95 99 13 2 97 5 188 6 139 1 170 -2 200 -17z m861 -4
c65 -36 73 -66 73 -270 0 -170 -1 -177 -24 -212 -43 -61 -73 -68 -276 -64
-160 3 -182 5 -206 23 -55 42 -61 65 -63 239 -1 169 5 217 34 252 38 47 65 53
250 54 160 0 176 -2 212 -22z m849 4 c21 -11 43 -35 56 -60 20 -38 22 -56 20
-219 -1 -167 -3 -180 -23 -209 -42 -59 -72 -66 -273 -62 -162 3 -181 5 -207
24 -56 41 -63 71 -63 265 0 166 1 178 23 210 40 61 70 69 262 69 145 0 175 -3
205 -18z m850 0 c19 -9 45 -32 57 -51 22 -32 23 -44 23 -210 0 -194 -7 -224
-63 -265 -26 -19 -45 -21 -207 -24 -201 -4 -231 3 -273 62 -21 29 -22 40 -22
221 0 183 1 191 23 223 39 53 67 60 257 61 143 1 176 -2 205 -17z m-3402 -857
c62 -37 72 -77 69 -277 -2 -162 -4 -179 -23 -205 -43 -57 -64 -63 -256 -63
-201 -1 -231 7 -267 70 -19 34 -21 53 -21 212 0 200 8 228 77 264 36 18 56 20
214 19 152 -1 178 -3 207 -20z m2565 -5 c58 -40 66 -71 64 -272 -2 -196 -7
-211 -76 -252 -31 -18 -73 -18 -1062 -18 -973 1 -1032 2 -1061 19 -17 10 -40
31 -52 46 -19 26 -21 42 -22 205 -2 190 5 226 48 263 13 10 36 22 52 27 16 4
488 7 1050 7 l1022 0 37 -25z m847 4 c62 -35 70 -66 70 -263 0 -159 -2 -176
-22 -212 -35 -63 -62 -70 -264 -70 -192 0 -214 5 -258 64 -19 26 -21 43 -23
205 -2 210 7 245 75 279 35 17 59 19 214 18 154 -1 178 -3 208 -21z"/>
</g>
</svg>
